# AST/ASF file generated using VICON BodyLanguage
# -----------------------------------------------
:version 1.10
:name VICON
:units
  mass 1.0
  length 0.45
  angle deg
:documentation
   .ast/.asf automatically generated from VICON data using
   VICON BodyBuilder and BodyLanguage model FoxedUp or BRILLIANT.MOD
:root
   order TX TY TZ RX RY RZ
   axis XYZ
   position 0 0 0  
   orientation 0 0 0 
:bonedata
  begin
     id 1 
     name lhipjoint
     direction 0.602128 -0.715006 0.355257 
     length 2.21237 
     axis 0 0 0  XYZ
  end
  begin
     id 2 
     name lfemur
     direction 0.34202 -0.939693 0  
     length 6.71649  
     axis 0 0 20  XYZ
    dof rx ry rz
    limits (-160.0 20.0)
           (-70.0 70.0)
           (-60.0 70.0)
  end
  begin
     id 3 
     name ltibia
     direction 0.34202 -0.939693 0   
     length 6.97123   
     axis 0 0 20   XYZ
    dof rx
    limits (-10.0 170.0)
  end
  begin
     id 4 
     name lfoot
     direction 0.0655697 -0.180151 0.981451   
     length 1.80924   
     axis -90 7.62852e-016 20   XYZ
    dof rx rz
    limits (-45.0 90.0)
           (-70.0 20.0)
  end
  begin
     id 5 
     name ltoes
     direction 1.53545e-011 -4.21827e-011 1   
     length 0.916331   
     axis -90 7.62852e-016 20   XYZ
    dof rx
    limits (-90.0 20.0)
  end
  begin
     id 6 
     name rhipjoint
     direction -0.625414 -0.698792 0.347201   
     length 2.2637  
     axis 0 0 0  XYZ 
  end
  begin
     id 7 
     name rfemur
     direction -0.34202 -0.939693 0   
     length 7.07595   
     axis 0 0 -20   XYZ
    dof rx ry rz
    limits (-160.0 20.0)
           (-70.0 70.0)
           (-70.0 60.0)
  end
  begin
     id 8 
     name rtibia
     direction -0.34202 -0.939693 0   
     length 7.22924   
     axis 0 0 -20   XYZ
    dof rx
    limits (-10.0 170.0)
 end
 begin
     id 9 
     name rfoot
     direction -0.0766747 -0.210662 0.974547   
     length 1.98482  
     axis -90 -7.62852e-016 -20   XYZ
    dof rx rz
    limits (-45.0 90.0)
           (-20.0 70.0)
  end
  begin
     id 10 
     name rtoes
     direction -1.53532e-011 -4.21867e-011 1   
     length 0.999842   
     axis -90 -7.62852e-016 -20   XYZ
    dof rx
    limits (-90.0 20.0)
  end
  begin
     id 11 
     name lowerback
     direction -0.0224668 0.997354 -0.0691422   
     length 2.09945   
     axis 0 0 0   XYZ
    dof rx ry rz
    limits (-20.0 45.0)
           (-30.0 30.0)
           (-30.0 30.0)
  end
  begin
     id 12 
     name upperback
     direction 0.0134698 0.998451 -0.0539888   
     length 2.09758   
     axis 0 0 0   XYZ
    dof rx ry rz
    limits (-20.0 45.0)
           (-30.0 30.0)
           (-30.0 30.0)
  end
  begin
     id 13 
     name thorax
     direction 0.0241905 0.99948 -0.0213333   
     length 2.10428   
     axis 0 0 0   XYZ
    dof rx ry rz
    limits (-20.0 45.0)
           (-30.0 30.0)
           (-30.0 30.0)
  end
  begin
     id 14 
     name lowerneck
     direction -0.00866847 0.995978 0.0891737   
     length 1.3959   
     axis 0 0 0   XYZ
    dof rx ry rz
    limits (-20.0 45.0)
           (-30.0 30.0)
           (-30.0 30.0)
  end
  begin
     id 15 
     name upperneck
     direction 0.0680679 0.992203 0.104404   
     length 1.39452   
     axis 0 0 0   XYZ
    dof rx ry rz
    limits (-20.0 45.0)
           (-30.0 30.0)
           (-30.0 30.0)
  end
  begin
     id 16
     name head
     direction 0.0242216 0.999358 0.0264054  
     length 1.40433  
     axis 0 0 0   XYZ
    dof rx ry rz
    limits (-20.0 45.0)
           (-30.0 30.0)
           (-30.0 30.0)
  end
  begin
     id 17 
     name lclavicle
     direction 0.929368 0.362991 -0.0671771  
     length 3.04887  
     axis 0 0 0   XYZ
    dof ry rz
    limits (-20.0 10.0)
           (0.0 20.0)
  end
  begin
     id 18 
     name lhumerus
     direction 1 -4.48967e-011 -7.13741e-028   
     length 4.77195   
     axis -180 -30 -90   XYZ
    dof rx ry rz
    limits (-60.0 90.0)
           (-90.0 90.0)
           (-90.0 90.0)
  end
  begin
     id 19
     name lradius
     direction 1 -4.48977e-011 3.60404e-027   
     length 2.98444   
     axis -180 -30 -90   XYZ
    dof rx
    limits (-10.0 170.0)
  end
  begin
     id 20
     name lwrist
     direction 1 -4.48997e-011 7.54877e-027   
     length 1.49222   
     axis -7.18178e-015 90 90   XYZ
    dof ry
    limits (-180.0 0.0)
 end
  begin
     id 21 
     name lhand
     direction 1 -4.489e-011 1.51105e-026   
     length 0.992285   
     axis -9.63605e-015 90 90   XYZ
    dof rx rz
    limits (-90.0 90.0)
           (-45.0 45.0)
  end
  begin
     id 22 
     name lfingers
     direction 1 -4.48998e-011 3.01948e-026   
     length 0.800006   
     axis -1.92718e-014 90 90   XYZ
    dof rx
    limits (0.0 90.0)
  end
  begin
     id 23
     name lthumb
     direction 0.707107 -6.34881e-011 0.707107   
     length 1.14865   
     axis -90 45 -3.53137e-014   XYZ
    dof rx rz
    limits (-45.0 45.0)
           (-45.0 45.0)
  end
  begin
     id 24 
     name rclavicle
     direction -0.945672 0.324529 0.0196374   
     length 3.4236  
     axis 0 0 0   XYZ 
    dof ry rz
    limits (-10.0 20.0)
           (-20.0 0.0)
  end
  begin
     id 25 
     name rhumerus
     direction -1 -4.4896e-011 1.02757e-029  
     length 4.62052   
     axis -180 30 90   XYZ
    dof rx ry rz
    limits (-90.0 60.0)
           (-90.0 90.0)
           (-90.0 90.0)
  end
  begin
     id 26 
     name rradius
     direction -1 -4.48982e-011 3.85962e-027   
     length 2.95332   
     axis -180 30 90   XYZ
    dof rx
    limits (-10.0 170.0)
  end
  begin
     id 27 
     name rwrist
     direction -1 -4.48961e-011 7.55118e-027   
     length 1.47666   
     axis -7.18178e-015 -90 -90   XYZ
    dof ry
    limits (-180.0 0.0)
  end
  begin
     id 28
     name rhand
     direction -1 -4.48984e-011 1.50994e-026   
     length 0.990956   
     axis -9.63605e-015 -90 -90   XYZ
    dof rx rz
    limits (-90.0 90.0)
           (-45.0 45.0)
  end
  begin
     id 29
     name rfingers
     direction -1 -4.4892e-011 3.02158e-026   
     length 0.798934   
     axis -1.92718e-014 -90 -90   XYZ
    dof rx
    limits (0.0 90.0)
  end
  begin
     id 30
     name rthumb
     direction -0.707107 -6.34916e-011 0.707107   
     length 1.14711   
     axis -90 -45 3.53137e-014   XYZ
    dof rx rz
    limits (-45.0 45.0)
           (-45.0 45.0)
  end
:hierarchy
  begin
    root lhipjoint rhipjoint lowerback
    lhipjoint lfemur
    lfemur ltibia
    ltibia lfoot
    lfoot ltoes
    rhipjoint rfemur
    rfemur rtibia
    rtibia rfoot
    rfoot rtoes
    lowerback upperback
    upperback thorax
    thorax lowerneck lclavicle rclavicle
    lowerneck upperneck
    upperneck head
    lclavicle lhumerus
    lhumerus lradius
    lradius lwrist
    lwrist lhand lthumb
    lhand lfingers
    rclavicle rhumerus
    rhumerus rradius
    rradius rwrist
    rwrist rhand rthumb
    rhand rfingers
  end

#!OML:ASF H:\ManfredObstacles\Project 1\Capture day 1\Session 1\Male.ASF
:FULLY-SPECIFIED
:DEGREES
226
root 7.12313 16.2423 17.5604 -169.651 -59.4999 -172.877
lowerback -0.97607 -0.932359 -2.95667
upperback 3.45761 -1.17066 -1.95637
thorax 4.12862 -0.68103 -0.418103
lowerneck -1.47582 -4.15861 -4.24616
upperneck -1.50011 -5.57564 10.0981
head 0.227689 -2.83138 3.98411
rclavicle -2.22639e-014 2.06736e-014
rhumerus -33.6629 -20.0471 -82.0393
rradius 33.1621
rwrist 28.7242
rhand -1.73118 -5.93411
rfingers 7.12502
rthumb 23.9312 -34.4628
lclavicle -2.22639e-014 2.06736e-014
lhumerus -19.4316 6.60584 77.8286
lradius 20.7148
lwrist -24.834
lhand -10.3831 8.17647
lfingers 7.12502
lthumb 15.6147 37.5662
rfemur -37.3765 -11.7055 28.424
rtibia 37.939
rfoot -23.0589 -11.2569
rtoes 2.91806
lfemur -31.5589 -1.22111 -18.7841
ltibia 31.6661
lfoot -8.94259 -7.02341
ltoes 21.8096
227
root 7.17519 16.2261 17.5969 -169.882 -60.2328 -172.499
lowerback -0.539416 -0.937639 -2.26862
upperback 3.98888 -1.21384 -2.37159
thorax 4.41016 -0.687036 -1.2347
lowerneck -1.31052 -4.22345 -3.88354
upperneck -1.68658 -5.67119 10.4323
head 0.145964 -2.89662 4.03693
rclavicle -3.02153e-014 -4.77083e-014
rhumerus -32.884 -20.32 -83.0213
rradius 33.7579
rwrist 28.5298
rhand -1.27678 -6.16053
rfingers 7.12502
rthumb 24.3669 -34.6314
lclavicle -3.02153e-014 -4.77083e-014
lhumerus -18.4742 5.16539 77.4514
lradius 21.2316
lwrist -23.6461
lhand -10.5667 8.40919
lfingers 7.12502
lthumb 15.4379 37.8127
rfemur -38.0291 -11.3332 28.2027
rtibia 38.7867
rfoot -23.1227 -9.80019
rtoes 6.23762
lfemur -32.3287 -1.46857 -18.6215
ltibia 32.1793
lfoot -8.68049 -7.31614
ltoes 21.3215
228
root 7.23415 16.2031 17.6269 -170.064 -61.0003 -172.099
lowerback 0.152566 -1.02657 -2.08452
upperback 4.35263 -1.37067 -2.40522
thorax 4.39051 -0.766625 -1.37048
lowerneck -1.31477 -4.26134 -4.00847
upperneck -1.58095 -5.73159 10.6816
head 0.198304 -2.92542 4.1468
rclavicle 4.77083e-015 3.33958e-014
rhumerus -32.1317 -19.7241 -83.5904
rradius 34.1961
rwrist 27.9258
rhand -1.02067 -6.17323
rfingers 7.12502
rthumb 24.6124 -34.6108
lclavicle 4.77083e-015 3.33958e-014
lhumerus -17.4426 5.21838 77.4096
lradius 21.3293
lwrist -23.6931
lhand -10.6376 8.41102
lfingers 7.12502
lthumb 15.3696 37.8198
rfemur -38.7204 -11.0229 28.066
rtibia 39.5512
rfoot -23.2154 -8.7222
rtoes 8.10081
lfemur -33.2519 -1.852 -18.3742
ltibia 32.8093
lfoot -8.4161 -7.59104
ltoes 21.8348
229
root 7.29931 16.1809 17.6564 -170.119 -61.92 -171.812
lowerback 1.02954 -1.12465 -1.99436
upperback 4.68603 -1.54639 -2.39946
thorax 4.23716 -0.860058 -1.40575
lowerneck -1.35048 -4.36245 -4.08207
upperneck -1.52804 -5.87363 10.9061
head 0.243955 -2.99571 4.23641
rclavicle -7.39479e-014 -3.97569e-014
rhumerus -31.4383 -19.1689 -83.9937
rradius 34.5493
rwrist 27.4705
rhand -1.07816 -5.97072
rfingers 7.12502
rthumb 24.5573 -34.4158
lclavicle -7.39479e-014 -3.97569e-014
lhumerus -15.7105 5.89262 77.5815
lradius 20.7244
lwrist -24.332
lhand -10.6875 8.04183
lfingers 7.12502
lthumb 15.3216 37.4542
rfemur -39.3697 -10.7071 27.8626
rtibia 40.2091
rfoot -23.2878 -8.55729
rtoes 8.13926
lfemur -34.2786 -2.38287 -18.1677
ltibia 33.4874
lfoot -8.18082 -7.8482
ltoes 21.7395
230
root 7.36725 16.1456 17.7147 -169.912 -62.7405 -171.549
lowerback 1.94647 -1.16419 -1.4591
upperback 4.89663 -1.64333 -2.52849
thorax 3.91789 -0.89349 -1.82003
lowerneck -1.21727 -4.5357 -3.89963
upperneck -1.70116 -6.09908 10.981
head 0.179767 -3.11882 4.22894
rclavicle 4.21423e-014 -8.5875e-014
rhumerus -30.9053 -18.8205 -84.317
rradius 35.0651
rwrist 27.2599
rhand -0.940818 -5.67612
rfingers 7.12502
rthumb 24.6889 -34.1033
lclavicle 4.21423e-014 -8.5875e-014
lhumerus -14.9045 5.26456 77.6283
lradius 21.1162
lwrist -23.7575
lhand -10.7193 7.19022
lfingers 7.12502
lthumb 15.2909 36.605
rfemur -40.4636 -10.805 27.7571
rtibia 40.8123
rfoot -23.1169 -8.32354
rtoes 8.07609
lfemur -35.7079 -3.12832 -17.9977
ltibia 34.2026
lfoot -8.00047 -7.80684
ltoes 21.2781
231
root 7.43537 16.1213 17.7433 -170.224 -63.5416 -171.22
lowerback 3.08833 -1.18053 -1.58726
upperback 5.39841 -1.72531 -2.30112
thorax 3.80589 -0.95803 -1.49491
lowerneck -1.10069 -4.69328 -3.98115
upperneck -2.15308 -6.27097 10.8903
head 0.0272394 -3.21656 4.2198
rclavicle 3.97569e-015 9.54166e-015
rhumerus -30.1937 -18.0431 -84.4213
rradius 35.7375
rwrist 26.8995
rhand -1.12349 -5.53591
rfingers 7.12502
rthumb 24.5138 -33.9869
lclavicle 3.97569e-015 9.54166e-015
lhumerus -13.8494 5.31794 78.0781
lradius 21.4446
lwrist -23.5529
lhand -10.7973 6.7795
lfingers 7.12502
lthumb 15.2158 36.2
rfemur -40.9025 -10.7935 27.6079
rtibia 41.3763
rfoot -23.2843 -8.19476
rtoes 8.35068
lfemur -36.5093 -3.605 -17.7758
ltibia 34.9334
lfoot -7.86529 -8.04614
ltoes 21.6549
232
root 7.50582 16.0947 17.7689 -170.302 -64.3066 -170.973
lowerback 3.72312 -1.21242 -2.45561
upperback 6.18863 -1.83914 -1.52406
thorax 4.32827 -1.09064 -0.211586
lowerneck -1.196 -4.80084 -4.51535
upperneck -2.97959 -6.33905 10.5343
head -0.21087 -3.25593 4.20807
rclavicle -1.11319e-014 3.33958e-014
rhumerus -28.7643 -16.514 -84.0565
rradius 36.2856
rwrist 26.2084
rhand -2.04528 -5.57729
rfingers 7.12502
rthumb 23.63 -34.1452
lclavicle -1.11319e-014 3.33958e-014
lhumerus -12.317 6.11931 79.3428
lradius 21.7646
lwrist -23.4546
lhand -10.9214 7.31771
lfingers 7.12502
lthumb 15.0962 36.7472
rfemur -41.5567 -10.7189 27.4918
rtibia 41.9787
rfoot -23.5372 -8.22346
rtoes 8.25939
lfemur -37.5317 -4.08768 -17.5695
ltibia 35.7675
lfoot -7.79242 -8.23206
ltoes 22.0974
233
root 7.58061 16.0547 17.8027 -169.953 -64.9664 -170.846
lowerback 4.61844 -1.18244 -2.3773
upperback 6.53577 -1.85581 -1.4836
thorax 4.18803 -1.11159 -0.19603
lowerneck -1.02254 -4.9273 -4.48366
upperneck -3.63837 -6.47197 10.6225
head -0.440917 -3.34605 4.25063
rclavicle 1.90833e-014 1.90833e-014
rhumerus -28.0978 -15.9228 -84.228
rradius 36.9061
rwrist 25.7608
rhand -2.65736 -5.45407
rfingers 7.12502
rthumb 23.0428 -34.0965
lclavicle 1.90833e-014 1.90833e-014
lhumerus -11.3784 5.15149 79.642
lradius 22.4604
lwrist -22.4247
lhand -10.958 8.10249
lfingers 7.12502
lthumb 15.0609 37.5346
rfemur -42.5731 -10.8506 27.6144
rtibia 42.5865
rfoot -23.5121 -8.56348
rtoes 5.35572
lfemur -38.9882 -4.51371 -17.4187
ltibia 36.6526
lfoot -7.68284 -8.32297
ltoes 22.1515
234
root 7.65945 16.0066 17.8379 -169.716 -65.5749 -170.534
lowerback 5.54799 -1.21824 -2.48906
upperback 6.84472 -1.96759 -1.24612
thorax 4.00629 -1.19189 0.132721
lowerneck -0.722788 -4.9315 -4.70146
upperneck -4.39725 -6.43512 10.7328
head -0.731681 -3.35307 4.36197
rclavicle -7.15625e-015 4.6118e-014
rhumerus -27.4087 -14.7451 -84.2763
rradius 37.6128
rwrist 25.0649
rhand -2.75285 -5.41534
rfingers 7.12502
rthumb 22.9511 -34.0692
lclavicle -7.15625e-015 4.6118e-014
lhumerus -10.73 4.38781 80.0327
lradius 23.4725
lwrist -21.3246
lhand -10.9782 8.40352
lfingers 7.12502
lthumb 15.0415 37.8371
rfemur -43.6176 -11.079 28.0117
rtibia 43.2099
rfoot -23.6657 -9.00195
rtoes 3.3163
lfemur -40.5667 -4.84351 -17.1852
ltibia 37.6022
lfoot -7.6536 -8.32999
ltoes 21.4875
235
root 7.73824 15.9661 17.8689 -169.785 -66.08 -169.963
lowerback 6.56114 -1.25794 -2.59546
upperback 7.15189 -2.09165 -1.00885
thorax 3.78055 -1.27952 0.463651
lowerneck -0.299745 -4.89179 -4.89497
upperneck -5.15365 -6.34386 10.934
head -1.04846 -3.33813 4.50969
rclavicle -8.82604e-014 -1.03368e-014
rhumerus -26.8108 -13.2843 -84.4653
rradius 38.4146
rwrist 24.1193
rhand -2.8432 -5.45065
rfingers 7.12502
rthumb 22.8644 -34.1152
lclavicle -8.82604e-014 -1.03368e-014
lhumerus -10.235 3.63739 80.2594
lradius 24.5611
lwrist -20.1703
lhand -11.015 8.35357
lfingers 7.12502
lthumb 15.0061 37.7898
rfemur -44.6631 -11.0656 28.4158
rtibia 43.8287
rfoot -23.6956 -9.57182
rtoes 1.69734
lfemur -42.0546 -5.06896 -16.8348
ltibia 38.5986
lfoot -7.77389 -8.35195
ltoes 20.7092
236
root 7.81608 15.9272 17.8973 -169.533 -66.3641 -169.733
lowerback 7.58724 -1.16784 -2.89531
upperback 7.46807 -2.05808 -0.805762
thorax 3.56312 -1.29892 0.863871
lowerneck 0.109279 -4.91099 -4.97599
upperneck -5.93681 -6.33233 11.032
head -1.37422 -3.3636 4.6011
rclavicle -2.8625e-014 -5.725e-014
rhumerus -26.2317 -12.2246 -84.494
rradius 39.244
rwrist 23.493
rhand -3.03281 -5.37799
rfingers 7.12502
rthumb 22.6825 -34.0649
lclavicle -2.8625e-014 -5.725e-014
lhumerus -9.66492 2.77774 80.5183
lradius 25.6042
lwrist -19.001
lhand -11.2228 8.14871
lfingers 7.12502
lthumb 14.8058 37.5998
rfemur -45.8056 -10.884 28.583
rtibia 44.4294
rfoot -24.0015 -9.8156
rtoes 2.11682
lfemur -43.5125 -5.19011 -16.6323
ltibia 39.6079
lfoot -7.87208 -8.43382
ltoes 21.0267
237
root 7.89378 15.8754 17.9275 -168.672 -66.589 -169.984
lowerback 8.46524 -1.0504 -3.2919
upperback 7.78606 -1.99296 -0.650815
thorax 3.4333 -1.30725 1.26162
lowerneck 0.269616 -5.00353 -4.94786
upperneck -6.61499 -6.42707 10.9271
head -1.62251 -3.43146 4.58645
rclavicle 4.45278e-014 -3.97569e-014
rhumerus -25.4776 -11.609 -84.4403
rradius 39.9107
rwrist 23.1905
rhand -3.24061 -5.19343
rfingers 7.12502
rthumb 22.483 -33.9046
lclavicle 4.45278e-014 -3.97569e-014
lhumerus -9.05847 1.7854 80.7913
lradius 26.7673
lwrist -17.932
lhand -11.3997 7.8723
lfingers 7.12502
lthumb 14.6354 37.3358
rfemur -47.2239 -11.0374 28.7237
rtibia 45.0361
rfoot -24.586 -9.43424
rtoes 4.80997
lfemur -45.1554 -5.40146 -16.5936
ltibia 40.5864
lfoot -7.89727 -8.44036
ltoes 21.3689
238
root 7.97305 15.8202 17.9559 -167.938 -66.7932 -170.014
lowerback 9.15754 -0.947759 -3.318
upperback 8.21916 -1.92811 -0.699272
thorax 3.50726 -1.30157 1.2323
lowerneck 0.243059 -5.11549 -4.80631
upperneck -7.28997 -6.54434 11.0127
head -1.8324 -3.51839 4.61242
rclavicle 1.59028e-015 -4.37326e-014
rhumerus -24.3672 -11.4018 -84.7645
rradius 40.3236
rwrist 23.0104
rhand -3.35153 -4.82692
rfingers 7.12502
rthumb 22.3766 -33.551
lclavicle 1.59028e-015 -4.37326e-014
lhumerus -8.14683 0.740712 80.7114
lradius 27.7732
lwrist -17.1288
lhand -11.4949 7.35078
lfingers 7.12502
lthumb 14.5437 36.821
rfemur -48.7992 -11.2883 29.0754
rtibia 45.6671
rfoot -24.85 -9.08187
rtoes 6.01492
lfemur -46.871 -5.622 -16.4038
ltibia 41.5061
lfoot -7.91995 -8.37161
ltoes 20.938
239
root 8.05532 15.774 17.982 -167.287 -66.8135 -170.017
lowerback 9.74204 -0.801383 -3.08105
upperback 8.81698 -1.79766 -1.02318
thorax 3.79625 -1.25404 0.75729
lowerneck 0.27925 -5.17508 -4.5769
upperneck -8.4114 -6.52371 11.7877
head -1.95847 -3.59738 4.38906
rclavicle -5.64548e-014 4.92986e-014
rhumerus -22.9166 -11.6688 -85.4699
rradius 40.5864
rwrist 23.2324
rhand -3.55774 -4.56756
rfingers 7.12502
rthumb 22.1786 -33.3153
lclavicle -5.64548e-014 4.92986e-014
lhumerus -6.79771 -0.309551 80.2183
lradius 28.4915
lwrist -16.3783
lhand -11.5993 6.41056
lfingers 7.12502
lthumb 14.4431 35.888
rfemur -50.2895 -10.8758 29.1787
rtibia 46.4047
rfoot -25.1071 -9.51461
rtoes 4.9763
lfemur -48.5037 -5.67417 -16.2109
ltibia 42.4628
lfoot -7.99787 -8.28797
ltoes 20.5279
240
root 8.13543 15.7363 18.011 -166.493 -66.7215 -170.269
lowerback 10.5264 -0.565732 -3.26124
upperback 9.2914 -1.58695 -1.03674
thorax 3.87216 -1.19046 0.838587
lowerneck 0.559493 -5.26858 -4.73316
upperneck -9.33871 -6.59848 12.032
head -2.2561 -3.68156 4.52346
rclavicle 0 -7.95139e-015
rhumerus -21.7118 -11.6797 -85.5554
rradius 40.9253
rwrist 23.26
rhand -3.74835 -4.49234
rfingers 7.12502
rthumb 21.9956 -33.2617
lclavicle 0 -7.95139e-015
lhumerus -5.77376 -1.26171 80.2305
lradius 29.2955
lwrist -15.6083
lhand -11.7835 5.96568
lfingers 7.12502
lthumb 14.2656 35.4557
rfemur -51.5933 -9.87621 28.8289
rtibia 47.1933
rfoot -25.4818 -10.4775
rtoes 4.41521
lfemur -49.9933 -5.66038 -16.17
ltibia 43.4287
lfoot -8.11705 -8.21818
ltoes 20.8133
